<?xml version="1.0" encoding="UTF-8"?>
<svg id="Livello_1" data-name="Livello 1" xmlns="http://www.w3.org/2000/svg" viewBox="0 0 148 32">
  <defs>
    <style>
      .cls-1 {
        fill: #fff;
      }
    </style>
  </defs>
  <path class="cls-1" d="m124.31,32c-1.4,0-2.64-.21-3.74-.62-1.09-.44-2.02-1.02-2.76-1.75-.73-.73-1.29-1.58-1.67-2.53-.39-.95-.58-1.95-.58-3,0-1.51.33-2.88,1-4.13.67-1.27,1.65-2.28,2.95-3.03,1.3-.77,2.9-1.16,4.8-1.16s3.5.38,4.8,1.13c1.3.75,2.28,1.74,2.95,2.97.67,1.23,1,2.57,1,4.01,0,.3-.02.6-.06.92,0,.13-.02.26-.03.38-.03.24-.24.42-.48.42h-10.25c-.29,0-.53.25-.46.53.08.32.2.6.38.84.28.34.63.58,1.03.74.42.16.86.24,1.31.24.63,0,1.21-.14,1.76-.42.4-.2.7-.45.91-.75.15-.22.4-.35.65-.28l3.86,1.08c.3.09.46.43.29.7-.39.62-.89,1.17-1.49,1.67-.75.63-1.64,1.14-2.67,1.52-1.03.36-2.2.54-3.5.54Zm-2.63-10.33c-.08.29.16.55.46.55h4.16c.3,0,.54-.26.45-.55-.08-.28-.2-.54-.35-.76-.22-.36-.53-.63-.91-.83-.36-.2-.79-.3-1.28-.3s-.92.1-1.31.3c-.36.2-.67.48-.91.83-.14.22-.24.47-.32.76Z"/>
  <path class="cls-1" d="m91.98,32c-1.48,0-2.94-.21-4.38-.64-1.26-.4-2.35-.95-3.27-1.66-.2-.15-.24-.42-.11-.63l1.61-2.64c.14-.23.45-.31.68-.17.9.51,1.76.91,2.6,1.22.99.35,1.88.53,2.67.53.45,0,.78-.05,1-.15.21-.12.32-.3.32-.56,0-.18-.08-.32-.23-.44s-.4-.23-.74-.35c-.32-.12-.74-.24-1.26-.38-1.33-.43-2.45-.83-3.35-1.2-.88-.37-1.55-.82-2-1.35-.43-.55-.64-1.27-.64-2.16,0-1.05.29-1.98.87-2.78.58-.82,1.41-1.46,2.48-1.93,1.09-.47,2.4-.7,3.93-.7,1.14,0,2.27.17,3.41.5,1.02.28,2.02.76,2.97,1.44.21.15.26.45.11.67l-1.79,2.63c-.15.21-.43.28-.66.16-.9-.49-1.68-.84-2.33-1.07-.73-.25-1.38-.38-1.96-.38-.28,0-.53.03-.74.09-.19.06-.34.15-.45.26-.11.12-.16.27-.16.47s.08.36.23.5c.15.12.39.23.71.35.32.1.73.21,1.22.35,1.46.39,2.65.79,3.57,1.2.92.39,1.6.87,2.03,1.43.45.57.68,1.31.68,2.22,0,1.62-.63,2.89-1.9,3.8-1.24.92-2.95,1.37-5.12,1.37Z"/>
  <path class="cls-1" d="m107.98,32c-1.48,0-2.94-.21-4.38-.64-1.26-.4-2.35-.95-3.27-1.66-.2-.15-.24-.42-.11-.63l1.61-2.64c.14-.23.45-.31.68-.17.9.51,1.76.91,2.6,1.22.99.35,1.88.53,2.67.53.45,0,.78-.05,1-.15.21-.12.32-.3.32-.56,0-.18-.08-.32-.22-.44-.15-.12-.4-.23-.74-.35-.32-.12-.74-.24-1.26-.38-1.33-.43-2.45-.83-3.35-1.2-.88-.37-1.54-.82-2-1.35-.43-.55-.64-1.27-.64-2.16,0-1.05.29-1.98.87-2.78.58-.82,1.41-1.46,2.48-1.93,1.09-.47,2.4-.7,3.93-.7,1.14,0,2.27.17,3.41.5,1.02.28,2.01.76,2.97,1.44.22.15.26.45.11.67l-1.79,2.63c-.15.21-.43.28-.66.16-.9-.49-1.68-.84-2.33-1.07-.73-.25-1.38-.38-1.96-.38-.28,0-.53.03-.74.09-.19.06-.34.15-.45.26-.11.12-.16.27-.16.47s.07.36.22.5c.15.12.39.23.71.35.32.1.73.21,1.22.35,1.46.39,2.65.79,3.57,1.2.92.39,1.6.87,2.03,1.43.45.57.68,1.31.68,2.22,0,1.62-.63,2.89-1.9,3.8-1.24.92-2.95,1.37-5.12,1.37Z"/>
  <path class="cls-1" d="m140.98,32c-1.48,0-2.94-.21-4.38-.64-1.26-.4-2.35-.95-3.27-1.66-.2-.15-.24-.42-.11-.63l1.61-2.64c.14-.23.45-.31.68-.17.9.51,1.76.91,2.6,1.22.99.35,1.88.53,2.67.53.45,0,.78-.05,1-.15.21-.12.32-.3.32-.56,0-.18-.07-.32-.22-.44-.15-.12-.4-.23-.74-.35-.32-.12-.74-.24-1.26-.38-1.33-.43-2.45-.83-3.35-1.2-.88-.37-1.54-.82-2-1.35-.43-.55-.64-1.27-.64-2.16,0-1.05.29-1.98.87-2.78.58-.82,1.41-1.46,2.48-1.93,1.09-.47,2.4-.7,3.93-.7,1.14,0,2.28.17,3.41.5,1.02.28,2.01.76,2.97,1.44.21.15.26.45.11.67l-1.79,2.63c-.15.21-.43.28-.66.16-.9-.49-1.68-.84-2.33-1.07-.73-.25-1.38-.38-1.96-.38-.28,0-.52.03-.74.09-.19.06-.34.15-.45.26-.11.12-.16.27-.16.47s.07.36.23.5c.15.12.39.23.71.35.32.1.73.21,1.22.35,1.46.39,2.65.79,3.57,1.2.92.39,1.6.87,2.03,1.43.45.57.68,1.31.68,2.22,0,1.62-.63,2.89-1.9,3.8-1.24.92-2.95,1.37-5.12,1.37Z"/>
  <path class="cls-1" d="m76.8,31.7c-.28,0-.5-.22-.5-.5v-14.64c0-.28.22-.5.5-.5h4.77c.28,0,.5.22.5.5v14.64c0,.28-.22.5-.5.5h-4.77Zm0-16.95c-.28,0-.5-.22-.5-.5v-3.76c0-.28.22-.5.5-.5h4.77c.28,0,.5.22.5.5v3.76c0,.28-.22.5-.5.5h-4.77Z"/>
  <path class="cls-1" d="m65.37,10.5c0-.28.22-.5.5-.5h4.77c.28,0,.5.22.5.5v14.99c0,.57.12,1.02.36,1.34.26.3.64.45,1.12.45.24,0,.51-.04.79-.12.05-.01.09-.03.14-.04.33-.11.71.07.77.42l.54,3.08c.04.22-.08.45-.29.53-.6.24-1.26.44-1.99.59-.85.18-1.66.27-2.43.27-1.54,0-2.72-.39-3.56-1.16-.83-.79-1.25-1.91-1.25-3.36V10.5Z"/>
  <path class="cls-1" d="m52.72,31.88c-1.72,0-3.2-.28-4.44-.83-1.24-.56-2.25-1.32-3.04-2.29-.77-.97-1.34-2.08-1.7-3.33-.36-1.27-.55-2.6-.55-3.98v-10.35c0-.28.22-.5.5-.5h4.93c.28,0,.5.22.5.5v10.35c0,.69.07,1.36.21,1.99.14.63.36,1.2.67,1.69.3.5.69.89,1.15,1.19.49.28,1.07.42,1.76.42s1.31-.14,1.79-.42c.49-.3.87-.69,1.15-1.19.3-.52.53-1.09.67-1.72.14-.63.21-1.29.21-1.96v-10.35c0-.28.22-.5.5-.5h4.93c.28,0,.5.22.5.5v10.35c0,1.47-.2,2.83-.61,4.1-.38,1.27-.97,2.38-1.76,3.33-.79.95-1.8,1.69-3.04,2.23-1.22.52-2.66.77-4.35.77Z"/>
  <path class="cls-1" d="m10.54,0s.08.04.12.04c.4.03.77.16,1.11.37.43.27.87.54,1.28.85,1.89,1.42,3.77,2.86,5.66,4.28,4.05,3.05,8.11,6.1,12.17,9.15.16.12.31.24.46.36.19.16.29.36.22.61-.08.27-.27.41-.54.45-.19.03-.37.04-.56.05-1.32.05-2.64.08-3.97.13-1.7.06-3.39.13-5.09.19-1.15.04-2.3.07-3.45.12-1.02.05-1.99-.17-2.88-.65-.39-.21-.77-.45-1.12-.71-1.88-1.39-3.75-2.8-5.63-4.21-.39-.29-.75-.62-1.05-1.01-.53-.7-.7-1.49-.59-2.35.07-.5.23-.98.38-1.46.48-1.51.96-3.02,1.43-4.53.14-.44.35-.84.7-1.14.31-.27.67-.43,1.08-.49.07-.01.15-.04.22-.06h.05Z"/>
  <path class="cls-1" d="m16.5,31.53c-2.14.08-4.28.16-6.42.24-1.22.04-2.44.08-3.66.12-1.29.04-2.58.09-3.87.12-.32,0-.64,0-.95-.07-1.17-.25-1.72-1.2-1.58-2.31.04-.31.13-.62.22-.92.5-1.65,1.02-3.3,1.53-4.95.24-.78.67-1.43,1.36-1.88.48-.31,1.02-.5,1.59-.52,1.02-.04,2.04-.07,3.06-.1,2.24-.07,4.48-.14,6.72-.2,2.38-.07,4.77-.14,7.15-.22h0c1.53-.05,3.07-.09,4.6-.15,1.41-.05,2.81-.1,4.22-.16l3.94-.14c.24,0,.49,0,.73-.02,1.07-.07,2.05.81,2.23,1.87.06.37.03.73-.08,1.08-.34,1.1-.68,2.19-1.04,3.28-.14.44-.29.87-.47,1.29-.7,1.69-1.96,2.68-3.72,3.05-.67.14-1.35.18-2.04.2-2.08.05-4.16.1-6.24.16-2.01.05-4.01.11-6.02.17-.42.01-.84.03-1.26.05h0Z"/>
</svg>