<?xml version="1.0" encoding="UTF-8"?>
<svg id="Livello_1" data-name="Livello 1" xmlns="http://www.w3.org/2000/svg" viewBox="0 0 55.77 52">
  <defs>
    <style>
      .cls-1 {
        fill: #fff;
      }
    </style>
  </defs>
  <path class="cls-1" d="m43.19,52c-.74,0-1.4-.11-1.99-.33-.58-.23-1.07-.54-1.47-.93-.39-.39-.68-.84-.89-1.34-.2-.51-.31-1.04-.31-1.59,0-.8.18-1.53.53-2.19.36-.67.88-1.21,1.57-1.61.69-.41,1.54-.62,2.55-.62s1.86.2,2.55.6c.69.4,1.21.93,1.57,1.58.36.65.53,1.36.53,2.13,0,.16-.01.32-.03.49,0,0,0,0,0,0-.02.24-.23.42-.47.42h-5c-.29,0-.53.26-.42.52.03.07.07.14.12.21.15.18.33.31.55.39.23.08.46.13.69.13.33,0,.65-.07.94-.22.14-.07.25-.14.34-.23.19-.18.45-.33.7-.26l1.57.44c.3.09.46.43.26.68-.18.24-.39.45-.63.65-.4.34-.87.61-1.42.81-.55.19-1.17.28-1.86.28Zm-1.31-5.74c-.12.27.12.54.42.54h1.68c.3,0,.54-.27.41-.54-.03-.05-.06-.11-.09-.16-.12-.19-.28-.34-.48-.44-.19-.11-.42-.16-.68-.16s-.49.05-.69.16c-.19.11-.36.25-.48.44-.03.05-.06.1-.08.15Z"/>
  <path class="cls-1" d="m26.02,52c-.79,0-1.56-.11-2.33-.34-.6-.19-1.12-.44-1.58-.76-.2-.14-.24-.42-.11-.63l.63-1.03c.14-.23.45-.31.69-.18.41.22.8.4,1.18.53.52.19,1,.28,1.42.28.24,0,.42-.03.53-.08.11-.06.17-.16.17-.3,0-.09-.04-.17-.12-.23-.08-.06-.21-.12-.39-.19-.17-.06-.39-.13-.67-.2-.71-.23-1.3-.44-1.78-.64-.47-.2-.82-.44-1.06-.71-.23-.29-.34-.67-.34-1.15,0-.56.15-1.05.46-1.48.31-.43.75-.78,1.32-1.03.58-.25,1.28-.37,2.09-.37.6,0,1.21.09,1.81.26.48.13.95.34,1.4.64.22.15.26.44.12.66l-.71,1.04c-.15.21-.43.28-.66.16-.4-.21-.75-.36-1.05-.46-.39-.13-.74-.2-1.04-.2-.15,0-.28.02-.39.05-.1.03-.18.08-.24.14-.06.06-.09.15-.09.25s.04.19.12.26c.08.06.21.12.38.19.17.05.39.11.65.19.77.21,1.41.42,1.9.64.49.21.85.46,1.08.76.24.3.36.69.36,1.18,0,.86-.34,1.53-1.01,2.02-.66.49-1.57.73-2.72.73Z"/>
  <path class="cls-1" d="m34.52,52c-.79,0-1.56-.11-2.33-.34-.6-.19-1.12-.44-1.58-.76-.2-.14-.24-.42-.11-.63l.63-1.03c.14-.23.45-.31.69-.18.41.22.8.4,1.18.53.52.19,1,.28,1.42.28.24,0,.42-.03.53-.08.11-.06.17-.16.17-.3,0-.09-.04-.17-.12-.23-.08-.06-.21-.12-.39-.19-.17-.06-.39-.13-.67-.2-.71-.23-1.3-.44-1.78-.64-.47-.2-.82-.44-1.06-.71-.23-.29-.34-.67-.34-1.15,0-.56.15-1.05.46-1.48.31-.43.75-.78,1.32-1.03.58-.25,1.28-.37,2.09-.37.6,0,1.21.09,1.81.26.48.13.95.34,1.4.64.22.15.26.44.12.66l-.71,1.04c-.15.21-.43.28-.66.16-.4-.21-.75-.36-1.05-.46-.39-.13-.74-.2-1.04-.2-.15,0-.28.02-.39.05-.1.03-.18.08-.24.14-.06.06-.09.15-.09.25s.04.19.12.26c.08.06.21.12.38.19.17.05.39.11.65.19.78.21,1.41.42,1.9.64.49.21.85.46,1.08.76.24.3.36.69.36,1.18,0,.86-.34,1.53-1.01,2.02-.66.49-1.57.73-2.72.73Z"/>
  <path class="cls-1" d="m52.04,52c-.79,0-1.56-.11-2.33-.34-.6-.19-1.12-.44-1.58-.76-.2-.14-.24-.42-.11-.63l.63-1.03c.14-.23.45-.31.69-.18.41.22.8.4,1.18.53.52.19,1,.28,1.42.28.24,0,.42-.03.53-.08.11-.06.17-.16.17-.3,0-.09-.04-.17-.12-.23-.08-.06-.21-.12-.39-.19-.17-.06-.39-.13-.67-.2-.71-.23-1.3-.44-1.78-.64-.47-.2-.82-.44-1.06-.71-.23-.29-.34-.67-.34-1.15,0-.56.15-1.05.46-1.48.31-.43.75-.78,1.32-1.03.58-.25,1.28-.37,2.09-.37.6,0,1.21.09,1.81.26.48.13.95.34,1.4.64.22.15.26.44.12.66l-.71,1.04c-.15.21-.43.28-.66.16-.4-.21-.75-.36-1.05-.46-.39-.13-.74-.2-1.04-.2-.15,0-.28.02-.39.05-.1.03-.18.08-.24.14-.06.06-.09.15-.09.25s.04.19.12.26c.08.06.21.12.38.19.17.05.39.11.65.19.78.21,1.41.42,1.9.64.49.21.85.46,1.08.76.24.3.36.69.36,1.18,0,.86-.34,1.53-1.01,2.02-.66.49-1.57.73-2.72.73Z"/>
  <path class="cls-1" d="m18.19,51.84c-.28,0-.5-.22-.5-.5v-7.31c0-.28.22-.5.5-.5h2.07c.28,0,.5.22.5.5v7.31c0,.28-.22.5-.5.5h-2.07Zm0-9c-.28,0-.5-.22-.5-.5v-1.53c0-.28.22-.5.5-.5h2.07c.28,0,.5.22.5.5v1.53c0,.28-.22.5-.5.5h-2.07Z"/>
  <path class="cls-1" d="m11.88,40.81c0-.28.22-.5.5-.5h2.07c.28,0,.5.22.5.5v7.73c0,.31.06.54.19.71.14.16.34.24.6.24.13,0,.27-.02.42-.06h0c.21-.06.46.06.5.27l.24,1.38c.04.22-.08.45-.29.53-.27.1-.57.18-.89.25-.45.09-.88.14-1.29.14-.82,0-1.45-.21-1.89-.62-.44-.42-.66-1.02-.66-1.78v-8.79Z"/>
  <path class="cls-1" d="m5.17,51.94c-.91,0-1.7-.15-2.36-.44-.66-.29-1.19-.7-1.61-1.22-.41-.52-.71-1.11-.9-1.77-.19-.67-.29-1.38-.29-2.12v-5.26c0-.28.22-.5.5-.5h2.15c.28,0,.5.22.5.5v5.26c0,.37.04.72.11,1.06.08.34.19.64.36.9.16.26.37.47.61.63.26.15.57.22.94.22s.69-.07.95-.22c.26-.16.46-.37.61-.63.16-.27.28-.58.36-.92.08-.34.11-.68.11-1.04v-5.26c0-.28.22-.5.5-.5h2.15c.28,0,.5.22.5.5v5.26c0,.78-.11,1.51-.32,2.18-.2.67-.52,1.26-.94,1.77-.42.51-.96.9-1.61,1.18-.65.27-1.42.41-2.31.41Z"/>
  <path class="cls-1" d="m19.54,0s.08.04.12.04c.4.03.77.16,1.11.37.43.27.87.54,1.28.85,1.89,1.42,3.77,2.86,5.66,4.28,4.05,3.05,8.11,6.1,12.17,9.15.16.12.31.24.46.36.19.16.29.36.22.61-.08.27-.27.41-.54.45-.19.03-.37.04-.56.05-1.32.05-2.64.08-3.97.13-1.7.06-3.39.13-5.09.19-1.15.04-2.3.07-3.45.12-1.02.05-1.99-.17-2.88-.65-.39-.21-.77-.45-1.12-.71-1.88-1.39-3.75-2.8-5.63-4.21-.39-.29-.75-.62-1.05-1.01-.53-.7-.7-1.49-.59-2.35.07-.5.23-.98.38-1.46.48-1.51.96-3.02,1.43-4.53.14-.44.35-.84.7-1.14.31-.27.67-.43,1.08-.49.07-.01.15-.04.22-.06h.05Z"/>
  <path class="cls-1" d="m25.5,31.53c-2.14.08-4.28.16-6.42.24-1.22.04-2.44.08-3.66.12-1.29.04-2.58.09-3.87.12-.32,0-.64,0-.95-.07-1.17-.25-1.72-1.2-1.58-2.31.04-.31.13-.62.22-.92.5-1.65,1.02-3.3,1.53-4.95.24-.78.67-1.43,1.36-1.88.48-.31,1.02-.5,1.59-.52,1.02-.04,2.04-.07,3.06-.1,2.24-.07,4.48-.14,6.72-.2,2.38-.07,4.77-.14,7.15-.22h0c1.53-.05,3.07-.09,4.6-.15,1.41-.05,2.81-.1,4.22-.16l3.94-.14c.24,0,.49,0,.73-.02,1.07-.07,2.05.81,2.23,1.87.06.37.03.73-.08,1.08-.34,1.1-.68,2.19-1.04,3.28-.14.44-.29.87-.47,1.29-.7,1.69-1.96,2.68-3.72,3.05-.67.14-1.35.18-2.04.2-2.08.05-4.16.1-6.24.16-2.01.05-4.01.11-6.02.17-.42.01-.84.03-1.26.05h0Z"/>
</svg>