<?xml version="1.0" encoding="UTF-8"?>
<svg id="Livello_1" data-name="Livello 1" xmlns="http://www.w3.org/2000/svg" viewBox="0 0 37.4 32">
  <defs>
    <style>
      .cls-1 {
        fill: #fff;
      }
    </style>
  </defs>
  <path class="cls-1" d="m10.54,0s.08.04.12.04c.4.03.77.16,1.11.37.43.27.87.54,1.28.85,1.89,1.42,3.77,2.86,5.66,4.28,4.05,3.05,8.11,6.1,12.17,9.15.16.12.31.24.46.36.19.16.29.36.22.61-.08.27-.27.41-.54.45-.19.03-.37.04-.56.05-1.32.05-2.64.08-3.97.13-1.7.06-3.39.13-5.09.19-1.15.04-2.3.07-3.45.12-1.02.05-1.99-.17-2.88-.65-.39-.21-.77-.45-1.12-.71-1.88-1.39-3.75-2.8-5.63-4.21-.39-.29-.75-.62-1.05-1.01-.53-.7-.7-1.49-.59-2.35.07-.5.23-.98.38-1.46.48-1.51.96-3.02,1.43-4.53.14-.44.35-.84.7-1.14.31-.27.67-.43,1.08-.49.07-.01.15-.04.22-.06h.05Z"/>
  <path class="cls-1" d="m16.5,31.53c-2.14.08-4.28.16-6.42.24-1.22.04-2.44.08-3.66.12-1.29.04-2.58.09-3.87.12-.32,0-.64,0-.95-.07-1.17-.25-1.72-1.2-1.58-2.31.04-.31.13-.62.22-.92.5-1.65,1.02-3.3,1.53-4.95.24-.78.67-1.43,1.36-1.88.48-.31,1.02-.5,1.59-.52,1.02-.04,2.04-.07,3.06-.1,2.24-.07,4.48-.14,6.72-.2,2.38-.07,4.77-.14,7.15-.22h0c1.53-.05,3.07-.09,4.6-.15,1.41-.05,2.81-.1,4.22-.16l3.94-.14c.24,0,.49,0,.73-.02,1.07-.07,2.05.81,2.23,1.87.06.37.03.73-.08,1.08-.34,1.1-.68,2.19-1.04,3.28-.14.44-.29.87-.47,1.29-.7,1.69-1.96,2.68-3.72,3.05-.67.14-1.35.18-2.04.2-2.08.05-4.16.1-6.24.16-2.01.05-4.01.11-6.02.17-.42.01-.84.03-1.26.05h0Z"/>
</svg>