<svg width="149" height="32" viewBox="0 0 149 32" fill="none" xmlns="http://www.w3.org/2000/svg">
<path d="M125.314 31.9999C123.916 31.9999 122.67 31.7918 121.576 31.3756C120.482 30.9396 119.56 30.3549 118.811 29.6216C118.081 28.8882 117.524 28.0459 117.139 27.0945C116.754 26.1432 116.562 25.1423 116.562 24.0918C116.562 22.5855 116.896 21.2081 117.565 19.9594C118.233 18.6909 119.216 17.6801 120.512 16.927C121.809 16.154 123.41 15.7675 125.314 15.7675C127.219 15.7675 128.819 16.1441 130.116 16.8972C131.413 17.6504 132.395 18.6414 133.064 19.8702C133.732 21.099 134.067 22.4369 134.067 23.8837C134.067 24.181 134.046 24.4882 134.006 24.8054C133.997 24.9397 133.986 25.0679 133.972 25.1901C133.946 25.4324 133.736 25.6081 133.493 25.6081H123.238C122.948 25.6081 122.713 25.8568 122.78 26.1394C122.857 26.4613 122.983 26.7401 123.156 26.9756C123.44 27.3126 123.785 27.5603 124.19 27.7189C124.615 27.8774 125.051 27.9567 125.497 27.9567C126.125 27.9567 126.712 27.818 127.259 27.5405C127.66 27.3447 127.964 27.0945 128.173 26.7901C128.32 26.5751 128.577 26.4351 128.828 26.5053L132.688 27.584C132.992 27.6691 133.143 28.0125 132.973 28.2794C132.582 28.8964 132.085 29.4528 131.484 29.9486C130.734 30.5828 129.842 31.0882 128.809 31.4648C127.776 31.8216 126.611 31.9999 125.314 31.9999ZM122.683 21.6666C122.606 21.9557 122.842 22.2189 123.141 22.2189H127.305C127.604 22.2189 127.841 21.9554 127.759 21.6675C127.678 21.3847 127.562 21.1324 127.411 20.9108C127.188 20.554 126.884 20.2765 126.499 20.0783C126.135 19.8801 125.709 19.781 125.223 19.781C124.737 19.781 124.301 19.8801 123.916 20.0783C123.552 20.2765 123.248 20.554 123.004 20.9108C122.866 21.1322 122.759 21.3841 122.683 21.6666Z" fill="#023373"/>
<path d="M92.9828 32C91.5021 32 90.0429 31.7855 88.6051 31.3565C87.3442 30.9572 86.2533 30.4033 85.3326 29.6948C85.1374 29.5447 85.0947 29.2711 85.2231 29.061L86.8349 26.4247C86.9776 26.1913 87.2811 26.1165 87.5194 26.2509C88.4176 26.7579 89.2838 27.163 90.118 27.4662C91.1051 27.8172 91.9957 27.9927 92.7897 27.9927C93.2403 27.9927 93.573 27.9439 93.7876 27.8464C94.0021 27.7294 94.1094 27.5442 94.1094 27.2907C94.1094 27.1152 94.0343 26.9689 93.8841 26.8519C93.7339 26.7349 93.4871 26.6179 93.1438 26.5009C92.8219 26.3839 92.4034 26.2572 91.8884 26.1207C90.5579 25.6917 89.4421 25.2919 88.5408 24.9214C87.6609 24.5509 86.9957 24.1024 86.5451 23.5759C86.1159 23.0299 85.9013 22.3083 85.9013 21.4113C85.9013 20.3583 86.191 19.4321 86.7704 18.6325C87.3498 17.8135 88.176 17.17 89.2489 16.702C90.3433 16.234 91.6524 16 93.176 16C94.3133 16 95.4506 16.1658 96.588 16.4973C97.6123 16.7731 98.6031 17.2546 99.5604 17.9418C99.7746 18.0955 99.8199 18.3925 99.6711 18.6103L97.8767 21.2373C97.7304 21.4516 97.4447 21.5178 97.2166 21.3941C96.3158 20.9053 95.5376 20.5503 94.882 20.3291C94.1524 20.0756 93.4979 19.9488 92.9185 19.9488C92.6395 19.9488 92.3927 19.9781 92.1781 20.0366C91.985 20.0951 91.8348 20.1828 91.7275 20.2998C91.6202 20.4168 91.5665 20.5728 91.5665 20.7678C91.5665 20.9628 91.6416 21.1286 91.7918 21.2651C91.9421 21.3821 92.1781 21.4991 92.5 21.6161C92.8219 21.7136 93.2296 21.8306 93.7232 21.9671C95.1824 22.3571 96.3734 22.7569 97.2961 23.1664C98.2189 23.5564 98.8948 24.0341 99.324 24.5996C99.7747 25.1651 100 25.9062 100 26.8227C100 28.4412 99.367 29.7087 98.1009 30.6252C96.8562 31.5417 95.1502 32 92.9828 32Z" fill="#023373"/>
<path d="M108.983 32C107.502 32 106.043 31.7855 104.605 31.3565C103.344 30.9572 102.253 30.4033 101.333 29.6948C101.137 29.5447 101.095 29.2711 101.223 29.061L102.835 26.4247C102.978 26.1913 103.281 26.1165 103.519 26.2509C104.418 26.7579 105.284 27.163 106.118 27.4662C107.105 27.8172 107.996 27.9927 108.79 27.9927C109.24 27.9927 109.573 27.9439 109.788 27.8464C110.002 27.7294 110.109 27.5442 110.109 27.2907C110.109 27.1152 110.034 26.9689 109.884 26.8519C109.734 26.7349 109.487 26.6179 109.144 26.5009C108.822 26.3839 108.403 26.2572 107.888 26.1207C106.558 25.6917 105.442 25.2919 104.541 24.9214C103.661 24.5509 102.996 24.1024 102.545 23.5759C102.116 23.0299 101.901 22.3083 101.901 21.4113C101.901 20.3583 102.191 19.4321 102.77 18.6325C103.35 17.8135 104.176 17.17 105.249 16.702C106.343 16.234 107.652 16 109.176 16C110.313 16 111.451 16.1658 112.588 16.4973C113.612 16.7731 114.603 17.2546 115.56 17.9418C115.775 18.0955 115.82 18.3925 115.671 18.6103L113.877 21.2373C113.73 21.4516 113.445 21.5178 113.217 21.3941C112.316 20.9053 111.538 20.5503 110.882 20.3291C110.152 20.0756 109.498 19.9488 108.918 19.9488C108.639 19.9488 108.393 19.9781 108.178 20.0366C107.985 20.0951 107.835 20.1828 107.727 20.2998C107.62 20.4168 107.567 20.5728 107.567 20.7678C107.567 20.9628 107.642 21.1286 107.792 21.2651C107.942 21.3821 108.178 21.4991 108.5 21.6161C108.822 21.7136 109.23 21.8306 109.723 21.9671C111.182 22.3571 112.373 22.7569 113.296 23.1664C114.219 23.5564 114.895 24.0341 115.324 24.5996C115.775 25.1651 116 25.9062 116 26.8227C116 28.4412 115.367 29.7087 114.101 30.6252C112.856 31.5417 111.15 32 108.983 32Z" fill="#023373"/>
<path d="M141.983 32C140.502 32 139.043 31.7855 137.605 31.3565C136.344 30.9572 135.253 30.4033 134.333 29.6948C134.137 29.5447 134.095 29.2711 134.223 29.061L135.835 26.4247C135.978 26.1913 136.281 26.1165 136.519 26.2509C137.418 26.7579 138.284 27.163 139.118 27.4662C140.105 27.8172 140.996 27.9927 141.79 27.9927C142.24 27.9927 142.573 27.9439 142.788 27.8464C143.002 27.7294 143.109 27.5442 143.109 27.2907C143.109 27.1152 143.034 26.9689 142.884 26.8519C142.734 26.7349 142.487 26.6179 142.144 26.5009C141.822 26.3839 141.403 26.2572 140.888 26.1207C139.558 25.6917 138.442 25.2919 137.541 24.9214C136.661 24.5509 135.996 24.1024 135.545 23.5759C135.116 23.0299 134.901 22.3083 134.901 21.4113C134.901 20.3583 135.191 19.4321 135.77 18.6325C136.35 17.8135 137.176 17.17 138.249 16.702C139.343 16.234 140.652 16 142.176 16C143.313 16 144.451 16.1658 145.588 16.4973C146.612 16.7731 147.603 17.2546 148.56 17.9418C148.775 18.0955 148.82 18.3925 148.671 18.6103L146.877 21.2373C146.73 21.4516 146.445 21.5178 146.217 21.3941C145.316 20.9053 144.538 20.5503 143.882 20.3291C143.152 20.0756 142.498 19.9488 141.918 19.9488C141.639 19.9488 141.393 19.9781 141.178 20.0366C140.985 20.0951 140.835 20.1828 140.727 20.2998C140.62 20.4168 140.567 20.5728 140.567 20.7678C140.567 20.9628 140.642 21.1286 140.792 21.2651C140.942 21.3821 141.178 21.4991 141.5 21.6161C141.822 21.7136 142.23 21.8306 142.723 21.9671C144.182 22.3571 145.373 22.7569 146.296 23.1664C147.219 23.5564 147.895 24.0341 148.324 24.5996C148.775 25.1651 149 25.9062 149 26.8227C149 28.4412 148.367 29.7087 147.101 30.6252C145.856 31.5417 144.15 32 141.983 32Z" fill="#023373"/>
<path d="M77.7971 31.7027C77.521 31.7027 77.2971 31.4788 77.2971 31.2027V16.5649C77.2971 16.2887 77.521 16.0649 77.7971 16.0649H82.5714C82.8475 16.0649 83.0714 16.2887 83.0714 16.5649V31.2027C83.0714 31.4788 82.8475 31.7027 82.5714 31.7027H77.7971ZM77.7971 14.7568C77.521 14.7568 77.2971 14.5329 77.2971 14.2568V10.5C77.2971 10.2239 77.521 10 77.7971 10H82.5714C82.8475 10 83.0714 10.2239 83.0714 10.5V14.2568C83.0714 14.5329 82.8475 14.7568 82.5714 14.7568H77.7971Z" fill="#023373"/>
<path d="M66.3726 10.5C66.3726 10.2239 66.5964 10 66.8726 10H71.6468C71.9229 10 72.1468 10.2239 72.1468 10.5V25.4892C72.1468 26.064 72.2684 26.5099 72.5115 26.827C72.7749 27.1243 73.1497 27.273 73.6359 27.273C73.8791 27.273 74.1425 27.2333 74.4261 27.1541C74.4734 27.1408 74.5201 27.1268 74.5662 27.112C74.8957 27.0058 75.2792 27.1864 75.339 27.5274L75.8792 30.6098C75.9183 30.8334 75.8025 31.0566 75.5923 31.1425C74.9933 31.3872 74.331 31.5839 73.6056 31.7324C72.7546 31.9108 71.9442 32 71.1743 32C69.6345 32 68.4493 31.6135 67.6186 30.8405C66.7879 30.0477 66.3726 28.9279 66.3726 27.4811V10.5Z" fill="#023373"/>
<path d="M53.725 31.8811C52.0029 31.8811 50.5239 31.6036 49.288 31.0487C48.0521 30.4937 47.0391 29.7306 46.2489 28.7595C45.479 27.7883 44.9117 26.6784 44.547 25.4297C44.1823 24.1613 44 22.8333 44 21.446V11.0946C44 10.8185 44.2239 10.5946 44.5 10.5946H49.4262C49.7023 10.5946 49.9262 10.8185 49.9262 11.0946V21.446C49.9262 22.1397 49.9971 22.8036 50.1389 23.4378C50.2808 24.0721 50.5036 24.6369 50.8075 25.1324C51.1114 25.6279 51.4964 26.0243 51.9624 26.3216C52.4486 26.5991 53.0362 26.7379 53.725 26.7379C54.4342 26.7379 55.0318 26.5991 55.5181 26.3216C56.0043 26.0243 56.3893 25.6279 56.6729 25.1324C56.9769 24.6171 57.1997 24.0424 57.3415 23.4081C57.4834 22.7739 57.5543 22.1198 57.5543 21.446V11.0946C57.5543 10.8185 57.7781 10.5946 58.0543 10.5946H62.9805C63.2566 10.5946 63.4805 10.8185 63.4805 11.0946V21.446C63.4805 22.9126 63.2779 24.2802 62.8727 25.5487C62.4877 26.8171 61.9002 27.927 61.11 28.8784C60.3198 29.8297 59.3068 30.573 58.0709 31.1081C56.8553 31.6234 55.4067 31.8811 53.725 31.8811Z" fill="#023373"/>
<path d="M11.5412 0.0010712C11.5807 0.016068 11.6191 0.0407057 11.6586 0.0428481C12.0598 0.0706994 12.4279 0.206742 12.764 0.415627C13.1983 0.68557 13.6347 0.957655 14.0434 1.26509C15.9363 2.68658 17.8153 4.12627 19.706 5.5499C23.7607 8.6039 27.8196 11.6525 31.8775 14.7044C32.0343 14.8222 32.1923 14.9401 32.3416 15.0675C32.5284 15.2282 32.6351 15.4253 32.5604 15.6813C32.4825 15.9502 32.2904 16.0927 32.0247 16.1323C31.8391 16.1602 31.6513 16.173 31.4645 16.1794C30.1425 16.2244 28.8205 16.2619 27.4984 16.308C25.8019 16.3669 24.1043 16.4333 22.4077 16.4944C21.2564 16.5362 20.1051 16.5672 18.9538 16.6176C17.9305 16.6626 16.9681 16.4462 16.0696 15.9641C15.6802 15.7552 15.3003 15.5174 14.945 15.2539C13.0639 13.8592 11.1923 12.4517 9.31756 11.0484C8.92596 10.7549 8.56638 10.4282 8.26868 10.0361C7.73731 9.3366 7.56979 8.54605 7.68289 7.68374C7.74904 7.1792 7.90803 6.70144 8.06275 6.22047C8.54504 4.71329 9.022 3.2029 9.49362 1.6925C9.63233 1.24902 9.84253 0.856962 10.1936 0.548456C10.503 0.275299 10.8647 0.113547 11.2723 0.0557025C11.346 0.0449905 11.4174 0.0192816 11.49 0C11.5071 0 11.5241 0 11.5412 0V0.0010712Z" fill="#023373"/>
<path d="M17.5027 31.5251C15.3635 31.6039 13.2242 31.6838 11.085 31.7606C9.86346 31.8042 8.6419 31.8426 7.42034 31.882C6.13133 31.9236 4.84232 31.9694 3.5533 31.9982C3.23606 32.0057 2.90933 31.9918 2.59946 31.9257C1.43271 31.6774 0.880423 30.7247 1.02166 29.6165C1.06065 29.3063 1.15024 29.0005 1.24194 28.7C1.74679 27.0482 2.25902 25.3996 2.76809 23.7489C3.00945 22.9657 3.43737 22.3199 4.12772 21.8712C4.61255 21.5569 5.14586 21.3746 5.72133 21.3512C6.74053 21.3096 7.75972 21.2819 8.77892 21.25C11.0197 21.1807 13.2604 21.1136 15.5022 21.0453C17.8863 20.9729 20.2704 20.9004 22.6545 20.8269L22.6549 20.8269C24.1883 20.78 25.7217 20.7331 27.2541 20.6809C28.6611 20.6329 30.0671 20.5807 31.4742 20.5242L35.4108 20.3868C35.6553 20.3793 35.8998 20.3836 36.1433 20.3676C37.2141 20.2973 38.1922 21.1807 38.3714 22.241C38.4336 22.6119 38.4009 22.971 38.2902 23.3248C37.9466 24.4203 37.6062 25.5169 37.2542 26.6092C37.1129 27.0461 36.9601 27.4798 36.7851 27.9039C36.0853 29.593 34.8237 30.5873 33.0615 30.9528C32.3901 31.0924 31.7092 31.135 31.0262 31.1521C28.9446 31.2032 26.8641 31.2522 24.7825 31.3077C22.7768 31.3609 20.7721 31.4217 18.7664 31.4803C18.3448 31.4931 17.9243 31.5133 17.5027 31.5293V31.5251Z" fill="#023373"/>
</svg>
