<svg width="56" height="52" viewBox="0 0 56 52" fill="none" xmlns="http://www.w3.org/2000/svg">
<path d="M43.1903 51.9999C42.4478 51.9999 41.786 51.8894 41.2048 51.6683C40.6237 51.4367 40.1341 51.1261 39.7359 50.7366C39.3485 50.3471 39.0525 49.8997 38.8481 49.3944C38.6436 48.8891 38.5414 48.3574 38.5414 47.7995C38.5414 46.9994 38.7189 46.2678 39.0741 45.6045C39.4292 44.9308 39.9511 44.3939 40.6399 43.9938C41.3286 43.5833 42.1787 43.378 43.1903 43.378C44.2019 43.378 45.0521 43.578 45.7408 43.9781C46.4295 44.3781 46.9514 44.9045 47.3066 45.5572C47.6617 46.2099 47.8393 46.9205 47.8393 47.6889C47.8393 47.8469 47.8285 48.01 47.807 48.1785C47.8068 48.1809 47.8066 48.1833 47.8065 48.1857C47.7896 48.4289 47.5803 48.6048 47.3365 48.6048H42.3399C42.0495 48.6048 41.8058 48.8607 41.9247 49.1257C41.9581 49.2 41.9979 49.2685 42.0442 49.3312C42.1949 49.5102 42.3778 49.6418 42.5931 49.726C42.8191 49.8102 43.0504 49.8523 43.2872 49.8523C43.6208 49.8523 43.9329 49.7786 44.2234 49.6312C44.3591 49.5649 44.4741 49.4867 44.5683 49.3969C44.7569 49.217 45.0141 49.0695 45.2651 49.1396L46.8306 49.5772C47.135 49.6623 47.2857 50.007 47.0953 50.2593C46.9177 50.4946 46.7084 50.7116 46.4672 50.9103C46.069 51.2472 45.5955 51.5156 45.0467 51.7157C44.4978 51.9052 43.8791 51.9999 43.1903 51.9999ZM41.8813 46.2632C41.7569 46.5355 42.0006 46.8046 42.3 46.8046H43.9838C44.2832 46.8046 44.527 46.5344 44.3948 46.2658C44.3679 46.211 44.3376 46.159 44.3041 46.1098C44.1858 45.9203 44.0243 45.773 43.8199 45.6677C43.6262 45.5624 43.4002 45.5098 43.1419 45.5098C42.8836 45.5098 42.6523 45.5624 42.4478 45.6677C42.2541 45.773 42.0927 45.9203 41.9635 46.1098C41.9333 46.1582 41.9059 46.2093 41.8813 46.2632Z" fill="#023373"/>
<path d="M26.0173 52C25.2309 52 24.4558 51.886 23.6921 51.6582C23.0946 51.469 22.569 51.2144 22.1153 50.8945C21.9141 50.7526 21.8719 50.4779 22.0003 50.2678L22.6311 49.236C22.7738 49.0026 23.0771 48.9285 23.318 49.058C23.7231 49.2758 24.1156 49.4537 24.4957 49.5918C25.02 49.7783 25.493 49.8715 25.9147 49.8715C26.1541 49.8715 26.3308 49.8456 26.4448 49.7938C26.5587 49.7317 26.6157 49.6333 26.6157 49.4986C26.6157 49.4054 26.5758 49.3277 26.4961 49.2656C26.4163 49.2034 26.2852 49.1413 26.1028 49.0791C25.9318 49.017 25.7096 48.9497 25.436 48.8771C24.7293 48.6493 24.1366 48.4369 23.6579 48.2402C23.1906 48.0434 22.8372 47.8051 22.5979 47.5255C22.3699 47.2355 22.2559 46.8522 22.2559 46.3758C22.2559 45.8165 22.4098 45.3245 22.7176 44.8998C23.0253 44.4648 23.4641 44.123 24.0341 43.8744C24.6154 43.6258 25.3106 43.5015 26.1199 43.5015C26.724 43.5015 27.3281 43.5896 27.9322 43.7656C28.412 43.8948 28.878 44.109 29.3301 44.4081C29.55 44.5536 29.5946 44.8518 29.4458 45.0695L28.738 46.1058C28.5917 46.32 28.3063 46.3855 28.0763 46.2655C27.6774 46.0575 27.3274 45.9026 27.0261 45.8009C26.6385 45.6663 26.2909 45.599 25.9831 45.599C25.835 45.599 25.7039 45.6145 25.5899 45.6456C25.4873 45.6766 25.4075 45.7232 25.3505 45.7854C25.2935 45.8475 25.2651 45.9304 25.2651 46.034C25.2651 46.1375 25.3049 46.2256 25.3847 46.2981C25.4645 46.3602 25.5899 46.4224 25.7609 46.4845C25.9318 46.5363 26.1484 46.5985 26.4106 46.671C27.1856 46.8781 27.8182 47.0905 28.3084 47.308C28.7985 47.5151 29.1575 47.7689 29.3855 48.0693C29.6248 48.3696 29.7445 48.7632 29.7445 49.25C29.7445 50.1097 29.4083 50.783 28.7358 51.2698C28.0747 51.7566 27.1685 52 26.0173 52Z" fill="#023373"/>
<path d="M34.5157 52C33.7293 52 32.9542 51.886 32.1905 51.6582C31.593 51.469 31.0674 51.2144 30.6137 50.8945C30.4125 50.7526 30.3703 50.4779 30.4988 50.2678L31.1296 49.236C31.2723 49.0026 31.5755 48.9285 31.8164 49.058C32.2215 49.2758 32.6141 49.4537 32.9941 49.5918C33.5184 49.7783 33.9914 49.8715 34.4132 49.8715C34.6525 49.8715 34.8292 49.8456 34.9432 49.7938C35.0572 49.7317 35.1141 49.6333 35.1141 49.4986C35.1141 49.4054 35.0743 49.3277 34.9945 49.2656C34.9147 49.2034 34.7836 49.1413 34.6012 49.0791C34.4303 49.017 34.208 48.9497 33.9344 48.8772C33.2278 48.6493 32.6351 48.4369 32.1563 48.2402C31.689 48.0434 31.3357 47.8051 31.0963 47.5255C30.8683 47.2355 30.7544 46.8522 30.7544 46.3758C30.7544 45.8165 30.9082 45.3245 31.216 44.8998C31.5237 44.4648 31.9626 44.123 32.5325 43.8744C33.1138 43.6258 33.8091 43.5015 34.6183 43.5015C35.2224 43.5015 35.8265 43.5896 36.4306 43.7656C36.9104 43.8948 37.3764 44.109 37.8285 44.4081C38.0484 44.5536 38.093 44.8518 37.9443 45.0695L37.2364 46.1058C37.0901 46.32 36.8047 46.3855 36.5747 46.2655C36.1759 46.0575 35.8258 45.9026 35.5245 45.8009C35.1369 45.6663 34.7893 45.599 34.4816 45.599C34.3334 45.599 34.2023 45.6145 34.0883 45.6456C33.9857 45.6766 33.9059 45.7232 33.849 45.7854C33.792 45.8475 33.7635 45.9304 33.7635 46.034C33.7635 46.1375 33.8034 46.2256 33.8831 46.2981C33.9629 46.3602 34.0883 46.4224 34.2593 46.4845C34.4303 46.5363 34.6468 46.5985 34.909 46.671C35.6841 46.8781 36.3167 47.0905 36.8068 47.308C37.2969 47.5151 37.6559 47.7689 37.8839 48.0693C38.1233 48.3696 38.2429 48.7632 38.2429 49.25C38.2429 50.1097 37.9067 50.783 37.2342 51.2698C36.5731 51.7566 35.667 52 34.5157 52Z" fill="#023373"/>
<path d="M52.0439 52C51.2575 52 50.4824 51.886 49.7187 51.6582C49.1212 51.469 48.5956 51.2144 48.1419 50.8945C47.9407 50.7526 47.8985 50.4779 48.0269 50.2678L48.6578 49.236C48.8005 49.0026 49.1037 48.9285 49.3446 49.058C49.7497 49.2758 50.1423 49.4537 50.5223 49.5918C51.0466 49.7783 51.5196 49.8715 51.9414 49.8715C52.1807 49.8715 52.3574 49.8456 52.4714 49.7938C52.5854 49.7317 52.6423 49.6333 52.6423 49.4986C52.6423 49.4054 52.6025 49.3277 52.5227 49.2656C52.4429 49.2034 52.3118 49.1413 52.1294 49.0791C51.9585 49.017 51.7362 48.9497 51.4626 48.8772C50.756 48.6493 50.1632 48.4369 49.6845 48.2402C49.2172 48.0434 48.8639 47.8051 48.6245 47.5255C48.3965 47.2355 48.2826 46.8522 48.2826 46.3758C48.2826 45.8165 48.4364 45.3245 48.7442 44.8998C49.0519 44.4648 49.4908 44.123 50.0607 43.8744C50.642 43.6258 51.3373 43.5015 52.1465 43.5015C52.7506 43.5015 53.3547 43.5896 53.9588 43.7656C54.4386 43.8948 54.9046 44.109 55.3567 44.4081C55.5766 44.5536 55.6212 44.8518 55.4725 45.0695L54.7646 46.1058C54.6183 46.32 54.3329 46.3855 54.1029 46.2655C53.7041 46.0575 53.354 45.9026 53.0527 45.8009C52.6651 45.6663 52.3175 45.599 52.0097 45.599C51.8616 45.599 51.7305 45.6145 51.6165 45.6456C51.5139 45.6766 51.4341 45.7232 51.3772 45.7854C51.3202 45.8475 51.2917 45.9304 51.2917 46.034C51.2917 46.1375 51.3316 46.2256 51.4113 46.2981C51.4911 46.3602 51.6165 46.4224 51.7875 46.4845C51.9585 46.5363 52.175 46.5985 52.4372 46.671C53.2123 46.8781 53.8449 47.0905 54.335 47.308C54.8251 47.5151 55.1841 47.7689 55.4121 48.0693C55.6515 48.3696 55.7711 48.7632 55.7711 49.25C55.7711 50.1097 55.4349 50.783 54.7624 51.2698C54.1013 51.7566 53.1952 52 52.0439 52Z" fill="#023373"/>
<path d="M18.1859 51.842C17.9098 51.842 17.6859 51.6182 17.6859 51.342V44.036C17.6859 43.7598 17.9098 43.536 18.1859 43.536H20.2529C20.5291 43.536 20.7529 43.7598 20.7529 44.036V51.342C20.7529 51.6182 20.5291 51.842 20.2529 51.842H18.1859ZM18.1859 42.8411C17.9098 42.8411 17.6859 42.6173 17.6859 42.3411V40.8146C17.6859 40.5384 17.9098 40.3146 18.1859 40.3146H20.2529C20.5291 40.3146 20.7529 40.5384 20.7529 40.8146V42.3411C20.7529 42.6173 20.5291 42.8411 20.2529 42.8411H18.1859Z" fill="#023373"/>
<path d="M11.8833 40.8146C11.8833 40.5384 12.1072 40.3146 12.3833 40.3146H14.4503C14.7265 40.3146 14.9503 40.5384 14.9503 40.8146V48.5417C14.9503 48.847 15.0149 49.0839 15.144 49.2523C15.2839 49.4102 15.483 49.4892 15.7413 49.4892C15.8704 49.4892 16.0103 49.4681 16.161 49.426V49.426C16.3745 49.3663 16.621 49.4825 16.6593 49.7008L16.9016 51.0836C16.9408 51.3073 16.8251 51.5315 16.612 51.6098C16.3393 51.7099 16.0437 51.7926 15.7251 51.8578C15.2732 51.9526 14.8427 52 14.4338 52C13.6159 52 12.9863 51.7947 12.5451 51.3841C12.1039 50.963 11.8833 50.3682 11.8833 49.5997V40.8146Z" fill="#023373"/>
<path d="M5.16549 51.9368C4.25077 51.9368 3.46518 51.7894 2.80874 51.4947C2.15229 51.1999 1.61422 50.7946 1.19452 50.2788C0.785585 49.7629 0.484265 49.1734 0.290559 48.5102C0.096853 47.8364 0 47.1311 0 46.3942V41.1304C0 40.8543 0.223858 40.6304 0.5 40.6304H2.64772C2.92386 40.6304 3.14772 40.8543 3.14772 41.1304V46.3942C3.14772 46.7626 3.18539 47.1153 3.26072 47.4522C3.33605 47.789 3.45442 48.0891 3.61584 48.3523C3.77727 48.6154 3.98173 48.826 4.22925 48.9839C4.48752 49.1313 4.7996 49.205 5.16549 49.205C5.54214 49.205 5.8596 49.1313 6.11788 48.9839C6.37615 48.826 6.58062 48.6154 6.73128 48.3523C6.8927 48.0785 7.01108 47.7733 7.08641 47.4364C7.16174 47.0995 7.1994 46.7521 7.1994 46.3942V41.1304C7.1994 40.8543 7.42326 40.6304 7.6994 40.6304H9.84712C10.1233 40.6304 10.3471 40.8543 10.3471 41.1304V46.3942C10.3471 47.1732 10.2395 47.8996 10.0243 48.5733C9.81981 49.2471 9.50773 49.8366 9.08804 50.3419C8.66834 50.8472 8.13027 51.242 7.47382 51.5263C6.82813 51.8 6.05869 51.9368 5.16549 51.9368Z" fill="#023373"/>
<path d="M19.5413 0.0010712C19.5808 0.016068 19.6192 0.0407057 19.6587 0.0428481C20.0599 0.0706994 20.428 0.206742 20.7641 0.415627C21.1984 0.68557 21.6348 0.957655 22.0434 1.26509C23.9363 2.68658 25.8153 4.12627 27.7061 5.5499C31.7608 8.6039 35.8197 11.6525 39.8775 14.7044C40.0344 14.8222 40.1923 14.9401 40.3417 15.0675C40.5284 15.2282 40.6351 15.4253 40.5604 15.6813C40.4825 15.9502 40.2905 16.0927 40.0248 16.1323C39.8391 16.1602 39.6513 16.173 39.4646 16.1794C38.1426 16.2244 36.8205 16.2619 35.4985 16.308C33.802 16.3669 32.1043 16.4333 30.4078 16.4944C29.2565 16.5362 28.1052 16.5672 26.9538 16.6176C25.9306 16.6626 24.9681 16.4462 24.0697 15.9641C23.6802 15.7552 23.3004 15.5174 22.9451 15.2539C21.0639 13.8592 19.1924 12.4517 17.3176 11.0484C16.926 10.7549 16.5664 10.4282 16.2687 10.0361C15.7374 9.3366 15.5698 8.54605 15.683 7.68374C15.7491 7.1792 15.9081 6.70144 16.0628 6.22047C16.5451 4.71329 17.0221 3.2029 17.4937 1.6925C17.6324 1.24902 17.8426 0.856962 18.1936 0.548456C18.5031 0.275299 18.8648 0.113547 19.2724 0.0557025C19.346 0.0449905 19.4175 0.0192816 19.4901 0C19.5071 0 19.5242 0 19.5413 0V0.0010712Z" fill="#023373"/>
<path d="M25.5027 31.5251C23.3635 31.6039 21.2242 31.6838 19.085 31.7606C17.8635 31.8042 16.6419 31.8426 15.4203 31.882C14.1313 31.9236 12.8423 31.9694 11.5533 31.9982C11.2361 32.0057 10.9093 31.9918 10.5995 31.9257C9.43271 31.6774 8.88042 30.7247 9.02166 29.6165C9.06065 29.3063 9.15024 29.0005 9.24194 28.7C9.74679 27.0482 10.259 25.3996 10.7681 23.7489C11.0095 22.9657 11.4374 22.3199 12.1277 21.8712C12.6126 21.5569 13.1459 21.3746 13.7213 21.3512C14.7405 21.3096 15.7597 21.2819 16.7789 21.25C19.0197 21.1807 21.2604 21.1136 23.5022 21.0453C25.8863 20.9729 28.2704 20.9004 30.6545 20.8269L30.6549 20.8269C32.1883 20.78 33.7217 20.7331 35.2541 20.6809C36.6611 20.6329 38.0671 20.5807 39.4742 20.5242L43.4108 20.3868C43.6553 20.3793 43.8998 20.3836 44.1433 20.3676C45.2141 20.2973 46.1922 21.1807 46.3714 22.241C46.4336 22.6119 46.4009 22.971 46.2902 23.3248C45.9466 24.4203 45.6062 25.5169 45.2542 26.6092C45.1129 27.0461 44.9601 27.4798 44.7851 27.9039C44.0853 29.593 42.8237 30.5873 41.0615 30.9528C40.3901 31.0924 39.7092 31.135 39.0262 31.1521C36.9446 31.2032 34.8641 31.2522 32.7825 31.3077C30.7768 31.3609 28.7721 31.4217 26.7664 31.4803C26.3448 31.4931 25.9243 31.5133 25.5027 31.5293V31.5251Z" fill="#023373"/>
</svg>
