<?xml version="1.0" encoding="UTF-8"?>
<svg enable-background="new 0 0 591.2 151.5" inkscape:version="1.1 (c68e22c387, 2021-05-23)" sodipodi:docname="logo-InnovAzioni-2024-no-payoff.svg" version="1.1" viewBox="0 0 591.2 151.5" xmlns="http://www.w3.org/2000/svg" xmlns:inkscape="http://www.inkscape.org/namespaces/inkscape" xmlns:sodipodi="http://sodipodi.sourceforge.net/DTD/sodipodi-0.dtd" xmlns:xlink="http://www.w3.org/1999/xlink"><sodipodi:namedview bordercolor="#666666" borderopacity="1.0" inkscape:current-layer="g42" inkscape:cx="203.65753" inkscape:cy="75.135787" inkscape:pagecheckerboard="0" inkscape:pageopacity="0.0" inkscape:pageshadow="2" inkscape:window-height="1010" inkscape:window-maximized="1" inkscape:window-width="1920" inkscape:window-x="-6" inkscape:window-y="-6" inkscape:zoom="0.505751" pagecolor="#ffffff" showgrid="false"/><defs><rect id="SVGID_1_" x="-125.3" y="-202" width="841.9" height="595.3"/></defs><clipPath id="SVGID_2_"><use overflow="visible" xlink:href="#SVGID_1_"/></clipPath><g transform="translate(-261.99 -46.84)"><g transform="translate(266.64 46.84)" fill="#031c54"><g fill="#031c54"><path d="m346.9 0v151.5h-13.8v-37.9h-60.1l-23.9 37.9h-16.5l95.8-151.5zm-65.1 99.7h51.4v-81.1z" fill="#031c54"/></g></g><g transform="translate(266.64 46.84)" fill="#041e5e" fill-opacity=".76471"><path d="m1.8 49.9h5.8v63.4h-5.8z"/><path d="m66.1 50.2v63.1h-6.2l-31.5-52.6v52.6h-5.8v-63.1h6.3l31.4 52.6v-52.6z"/><path d="m126.4 50.2v63.1h-6.2l-31.5-52.6v52.6h-5.8v-63.1h6.3l31.4 52.6v-52.6z"/><path d="m149.7 104.5c-6.3-6.3-9.4-13.8-9.4-22.7s3.1-16.5 9.4-22.8 13.8-9.4 22.7-9.4 16.5 3.1 22.8 9.4 9.4 13.9 9.4 22.8-3.1 16.4-9.4 22.7-13.9 9.4-22.8 9.4-16.5-3.1-22.7-9.4zm4-41.3c-5.2 5.2-7.7 11.4-7.7 18.6 0 7.3 2.6 13.5 7.7 18.6 5.2 5.2 11.4 7.7 18.6 7.7 7.3 0 13.5-2.6 18.6-7.7 5.2-5.2 7.7-11.4 7.7-18.6 0-7.3-2.6-13.5-7.7-18.6-5.2-5.2-11.4-7.7-18.6-7.7-7.2-0.1-13.4 2.5-18.6 7.7z"/><path d="m266.2 50.2-39.9 63.1h-7.7v-63.1h5.8v55.4l35-55.4z"/><path d="m409.4 50.2-31 57.3h28.1v5.8h-37.8l31-57.3h-28.1v-5.8z"/><path d="m419.9 49.9h5.8v63.4h-5.8z"/><path d="m447.3 104.5c-6.3-6.3-9.4-13.8-9.4-22.7s3.1-16.5 9.4-22.8 13.8-9.4 22.7-9.4 16.5 3.1 22.8 9.4 9.4 13.9 9.4 22.8-3.1 16.4-9.4 22.7-13.9 9.4-22.8 9.4-16.5-3.1-22.7-9.4zm4.1-41.3c-5.2 5.2-7.7 11.4-7.7 18.6 0 7.3 2.6 13.5 7.7 18.6 5.2 5.2 11.4 7.7 18.6 7.7s13.5-2.6 18.6-7.7c5.2-5.2 7.7-11.4 7.7-18.6 0-7.3-2.6-13.5-7.7-18.6-5.2-5.2-11.4-7.7-18.6-7.7s-13.5 2.5-18.6 7.7z"/><path d="m559.8 50.2v63.1h-6.2l-31.5-52.6v52.6h-5.8v-63.1h6.3l31.4 52.6v-52.6z"/><path d="m574.3 49.9h5.8v63.4h-5.8z"/></g></g></svg>
