<?xml version="1.0" standalone="no"?>
<!DOCTYPE svg PUBLIC "-//W3C//DTD SVG 1.1//EN" "http://www.w3.org/Graphics/SVG/1.1/DTD/svg11.dtd">
<svg xmlns="http://www.w3.org/2000/svg" xmlns:xlink="http://www.w3.org/1999/xlink" width="142" height="39" viewBox="0 0 142 39" version="1.1">
    <!-- Generator: Sketch 56.3 (81716) - https://sketch.com -->
    <title>logo-smau</title>
    <desc>Created with Sketch.</desc>
    <g id="Page-1" stroke="none" stroke-width="1" fill="none" fill-rule="evenodd">
        <g id="logo-smau" fill-rule="nonzero">
            <polygon id="Path" stroke="#FFFFFF" fill="#ED1C24" points="140.504 0.947 140.504 37.947 0.504 37.947 0.504 0.947"/>
            <rect id="Rectangle" fill="#FFFFFF" x="108" y="4" width="29" height="31"/>
            <path d="M70.092,22.035 C70.004,23.982 68.675,24.957 67.081,24.957 C65.753,24.957 64.779,24.07 64.779,23.186 C64.779,21.946 65.576,21.504 67.258,21.149 C68.232,20.973 69.206,20.708 70.091,20.264 L70.091,22.035 L70.092,22.035 Z M97.454,9.726 L90.104,9.726 L90.104,19.821 C90.104,22.833 88.422,23.452 87.182,23.452 C85.057,23.452 84.791,21.946 84.791,19.733 L84.791,9.726 L77.53,9.726 L77.53,22.832 C77.53,27.17 80.63,29.295 84.083,29.295 C87.005,29.295 88.954,28.322 90.282,26.373 L90.37,26.373 L90.37,28.853 L97.454,28.853 L97.454,9.726 L97.454,9.726 Z M26.347,14.413 C25.638,10.205 21.038,9.194 17.138,9.194 C13.33,9.194 8.105,10.434 8.105,15.304 C8.105,18.58 10.319,20.351 15.897,21.325 C19.351,21.856 19.971,22.21 19.971,23.362 C19.971,24.425 18.465,24.778 17.492,24.778 C16.606,24.778 15.898,24.6 15.544,24.247 C14.924,23.804 14.659,23.184 14.659,22.565 L7.663,22.565 C7.751,27.524 12.71,29.294 17.226,29.294 C20.87,29.294 24.845,28.407 26.347,25.403 L26.347,28.852 L33.697,28.852 L33.697,18.491 C33.697,16.454 34.317,15.038 36.176,15.038 C38.39,15.038 38.567,16.632 38.567,18.491 L38.567,28.852 L45.829,28.852 L45.829,18.491 C45.829,16.454 46.449,15.038 48.308,15.038 C50.522,15.038 50.699,16.632 50.699,18.491 L50.699,28.852 L58.049,28.852 L58.049,26.465 C59.153,28.403 61.434,29.293 64.07,29.293 C66.461,29.293 68.675,28.762 70.269,26.992 L70.269,26.992 C70.269,27.523 70.357,28.32 70.535,28.851 L77.973,28.851 C77.176,27.611 77.087,26.017 77.087,24.511 L77.087,16.719 C77.087,13 77.176,9.192 68.055,9.192 C63.539,9.192 58.403,10.078 58.226,15.479 L64.956,15.479 C65.044,14.682 65.487,13.531 67.701,13.531 C68.941,13.531 70.092,13.974 70.092,15.302 C70.092,16.541 69.118,16.807 68.144,16.984 C65.138,17.557 59.935,17.551 58.049,20.706 L58.049,15.744 C58.049,12.645 56.366,9.191 51.496,9.191 C46.714,9.191 45.209,11.936 44.943,12.202 C44.057,10.254 41.843,9.191 39.807,9.191 C37.15,9.191 34.936,9.988 33.52,12.202 L33.432,12.202 L33.432,9.723 L26.348,9.723 L26.348,14.413 L26.347,14.413 Z M26.347,20.008 C25.539,18.566 24.031,17.729 22.362,17.253 C19.971,16.367 17.138,16.278 15.986,15.747 C15.544,15.57 15.101,15.305 15.101,14.773 C15.101,13.533 16.252,13.267 17.315,13.267 C17.935,13.267 18.466,13.444 18.909,13.798 C19.441,14.152 19.795,14.595 19.795,15.304 L26.348,15.304 L26.348,20.008 L26.347,20.008 Z" id="Shape" fill="#FFFFFF"/>
        </g>
    </g>
</svg>